<?xml version="1.0" encoding="utf-8"?>
<!-- Generator: Adobe Illustrator 26.4.1, SVG Export Plug-In . SVG Version: 6.00 Build 0)  -->
<svg version="1.1" id="Layer_1" xmlns="http://www.w3.org/2000/svg" xmlns:xlink="http://www.w3.org/1999/xlink" x="0px" y="0px"
	 viewBox="0 0 127 128" style="enable-background:new 0 0 127 128;" xml:space="preserve">
<style type="text/css">
	.st0{fill:#C7D2FE;}
	.st1{fill:#818CF8;}
	.st2{fill:#FFFFFF;}
	.st3{fill-rule:evenodd;clip-rule:evenodd;fill:#FFFFFF;}
	.st4{fill:#F3F4F6;}
</style>
<path class="st0" d="M64.2,125.8c33.6,0,60.8-27.2,60.8-60.8S97.8,4.1,64.2,4.1S3.3,31.4,3.3,64.9S30.5,125.8,64.2,125.8z"/>
<path class="st1" d="M117.7,12.5c3.4,0,6.2-2.8,6.2-6.2S121.1,0,117.7,0s-6.2,2.8-6.2,6.2S114.2,12.5,117.7,12.5z"/>
<path class="st1" d="M6.2,92.1c3.4,0,6.2-2.8,6.2-6.2c0-3.4-2.8-6.2-6.2-6.2S0,82.4,0,85.8C0,89.3,2.8,92.1,6.2,92.1z"/>
<path class="st2" d="M11.8,70.2c2.3,0,4.1-1.8,4.1-4.1c0-2.3-1.8-4.1-4.1-4.1s-4.1,1.8-4.1,4.1C7.7,68.4,9.6,70.2,11.8,70.2z"/>
<path class="st2" d="M22.8,127.6c1.6,0,2.8-1.3,2.8-2.8s-1.3-2.8-2.8-2.8c-1.6,0-2.8,1.3-2.8,2.8S21.2,127.6,22.8,127.6z"/>
<path class="st2" d="M123.9,24.1c1.7,0,3.1-1.4,3.1-3.1s-1.4-3.1-3.1-3.1s-3.1,1.4-3.1,3.1C120.8,22.8,122.2,24.1,123.9,24.1z"/>
<path class="st2" d="M108.5,4.3c0.9,0,1.7-0.7,1.7-1.7S109.4,1,108.5,1s-1.7,0.7-1.7,1.7S107.5,4.3,108.5,4.3z"/>
<g id="customize">
	<g id="customize_2">
		<path id="Combined_Shape" class="st3" d="M47.1,57.2c0-1.7,1.1-3.2,2.6-3.7V48h-7.9c-0.7,0-1.3,0.6-1.3,1.3v31.4
			c0,0.7,0.6,1.3,1.3,1.3h17c0.7,0,1.3,0.6,1.3,1.3s-0.6,1.3-1.3,1.3h-17c-2.2,0-3.9-1.8-3.9-3.9V49.3c0-2.2,1.8-3.9,3.9-3.9h7.9
			v-2.6c0-0.7,0.6-1.3,1.3-1.3s1.3,0.6,1.3,1.3v2.6h11.8c0.7,0,1.3,0.6,1.3,1.3l0,0l0,0V69c1.5,0.5,2.6,2,2.6,3.7s-1.1,3.2-2.6,3.7
			v5.5h21c0.7,0,1.3-0.6,1.3-1.3V49.3c0-0.7-0.6-1.3-1.3-1.3h-17c-0.7,0-1.3-0.6-1.3-1.3s0.6-1.3,1.3-1.3H76v-2.6
			c0-0.7,0.6-1.3,1.3-1.3s1.3,0.6,1.3,1.3v2.6h7.8c2.2,0,3.9,1.8,3.9,3.9v31.4c0,2.2-1.8,3.9-3.9,3.9h-21v2.5c0,0.7-0.6,1.3-1.3,1.3
			c-0.7,0-1.3-0.6-1.3-1.3V76.5c-1.5-0.5-2.6-2-2.6-3.7s1.1-3.2,2.6-3.7V48H52.4v5.5c1.5,0.5,2.6,2,2.6,3.7s-1.1,3.2-2.6,3.7V78
			c0,0.7-0.6,1.3-1.3,1.3s-1.3-0.6-1.3-1.3V60.9C48.2,60.3,47.1,58.9,47.1,57.2z M51.1,58.5L51.1,58.5C51,58.5,51,58.5,51.1,58.5
			c-0.8,0-1.4-0.6-1.4-1.3c0-0.8,0.6-1.3,1.3-1.3c0.8,0,1.3,0.6,1.3,1.3C52.4,57.9,51.8,58.5,51.1,58.5z M75.9,68.7
			c-1.5-0.5-2.6-2-2.6-3.7c0-1.7,1.1-3.2,2.6-3.7v-9.4c0-0.7,0.6-1.3,1.3-1.3s1.3,0.6,1.3,1.3v9.4c1.5,0.5,2.6,2,2.6,3.7
			s-1.1,3.2-2.6,3.7V78c0,0.7-0.6,1.3-1.3,1.3s-1.3-0.6-1.3-1.3V68.7z M78.6,65c0-0.8-0.6-1.3-1.3-1.3c-0.8,0-1.3,0.6-1.3,1.3
			c0,0.8,0.6,1.3,1.3,1.3S78.6,65.8,78.6,65z M65.5,72.8c0-0.8-0.6-1.3-1.3-1.3c-0.8,0-1.3,0.6-1.3,1.3c0,0.8,0.6,1.3,1.3,1.3
			C64.9,74.1,65.5,73.5,65.5,72.8z"/>
	</g>
</g>
<path class="st4" d="M96.7,126.1c13.1,0,23.7-10.6,23.7-23.7s-10.6-23.7-23.7-23.7C83.6,78.6,73,89.2,73,102.3
	S83.6,126.1,96.7,126.1z"/>
<path class="st0" d="M96.7,122.7c11.3,0,20.4-9.1,20.4-20.4S108,81.9,96.7,81.9S76.3,91,76.3,102.3S85.4,122.7,96.7,122.7z"/>
<rect x="85.5" y="102.5" class="st3" width="22.4" height="1.9"/>
</svg>
