<?xml version="1.0" encoding="utf-8"?>
<!-- Generator: Adobe Illustrator 26.4.1, SVG Export Plug-In . SVG Version: 6.00 Build 0)  -->
<svg version="1.1" id="Layer_1" xmlns="http://www.w3.org/2000/svg" xmlns:xlink="http://www.w3.org/1999/xlink" x="0px" y="0px"
	 viewBox="0 0 48 48" style="enable-background:new 0 0 48 48;" xml:space="preserve">
<style type="text/css">
	.st0{fill:#4338CA;}
	.st1{fill:none;stroke:#FFFFFF;stroke-width:2.75;stroke-linecap:round;stroke-linejoin:round;}
</style>
<circle class="st0" cx="24" cy="24" r="24"/>
<path class="st1" d="M21,23c2.2,0,4-1.8,4-4s-1.8-4-4-4s-4,1.8-4,4S18.8,23,21,23z"/>
<path class="st1" d="M15,33v-2c0-1.1,0.4-2.1,1.2-2.8c0.8-0.8,1.8-1.2,2.8-1.2h4c1.1,0,2.1,0.4,2.8,1.2c0.8,0.8,1.2,1.8,1.2,2.8v2"
	/>
<path class="st1" d="M28,15.1c0.9,0.2,1.6,0.7,2.2,1.4c0.5,0.7,0.8,1.6,0.8,2.5c0,0.9-0.3,1.8-0.8,2.5c-0.5,0.7-1.3,1.2-2.2,1.4"/>
<path class="st1" d="M33,33v-2c0-0.9-0.3-1.7-0.8-2.4c-0.5-0.7-1.3-1.2-2.2-1.4"/>
</svg>
