<?xml version="1.0" encoding="utf-8"?>
<!-- Generator: Adobe Illustrator 26.4.1, SVG Export Plug-In . SVG Version: 6.00 Build 0)  -->
<svg version="1.1" id="Layer_1" xmlns="http://www.w3.org/2000/svg" xmlns:xlink="http://www.w3.org/1999/xlink" x="0px" y="0px"
	 viewBox="0 0 127 128" style="enable-background:new 0 0 127 128;" xml:space="preserve">
<style type="text/css">
	.st0{fill:#C7D2FE;}
	.st1{fill:none;stroke:#FFFFFF;stroke-width:3;stroke-linecap:round;stroke-linejoin:round;}
	.st2{fill:#818CF8;}
	.st3{fill:#FFFFFF;}
	.st4{fill:#F3F4F6;}
</style>
<path class="st0" d="M64.8,124.6c33.6,0,60.8-27.2,60.8-60.8S98.4,3,64.8,3S4,30.2,4,63.8S31.2,124.6,64.8,124.6z"/>
<path class="st1" d="M53,55c0-0.8,0.3-1.6,0.9-2.1S55.2,52,56,52h15c0.4,0,0.8,0.2,1.1,0.4c0.3,0.3,0.4,0.7,0.4,1.1V58l3,6v-4.5
	c0-0.4-0.2-0.8-0.4-1.1C74.8,58.2,74.4,58,74,58H56c-0.8,0-1.6-0.3-2.1-0.9S53,55.8,53,55z M53,55v18c0,0.8,0.3,1.6,0.9,2.1
	S55.2,76,56,76h18c0.4,0,0.8-0.2,1.1-0.4c0.3-0.3,0.4-0.7,0.4-1.1V70"/>
<path class="st1" d="M77,64v6h-6c-0.8,0-1.6-0.3-2.1-0.9S68,67.8,68,67c0-0.8,0.3-1.6,0.9-2.1S70.2,64,71,64H77z"/>
<path class="st2" d="M117.7,12.5c3.4,0,6.2-2.8,6.2-6.2S121.1,0,117.7,0c-3.4,0-6.2,2.8-6.2,6.2S114.2,12.5,117.7,12.5z"/>
<path class="st2" d="M6.2,92.1c3.4,0,6.2-2.8,6.2-6.2c0-3.4-2.8-6.2-6.2-6.2S0,82.4,0,85.8C0,89.3,2.8,92.1,6.2,92.1z"/>
<path class="st3" d="M11.8,70.2c2.3,0,4.1-1.8,4.1-4.1c0-2.3-1.8-4.1-4.1-4.1c-2.3,0-4.1,1.8-4.1,4.1C7.7,68.4,9.6,70.2,11.8,70.2z"
	/>
<path class="st3" d="M22.8,127.6c1.6,0,2.8-1.3,2.8-2.8s-1.3-2.8-2.8-2.8c-1.6,0-2.8,1.3-2.8,2.8S21.2,127.6,22.8,127.6z"/>
<path class="st3" d="M123.9,24.1c1.7,0,3.1-1.4,3.1-3.1c0-1.7-1.4-3.1-3.1-3.1c-1.7,0-3.1,1.4-3.1,3.1
	C120.8,22.8,122.2,24.1,123.9,24.1z"/>
<path class="st3" d="M108.5,4.3c0.9,0,1.7-0.7,1.7-1.7S109.4,1,108.5,1s-1.7,0.7-1.7,1.7S107.5,4.3,108.5,4.3z"/>
<path class="st4" d="M96.7,126.1c13.1,0,23.7-10.6,23.7-23.7c0-13.1-10.6-23.7-23.7-23.7C83.6,78.6,73,89.2,73,102.3
	C73,115.4,83.6,126.1,96.7,126.1z"/>
<path class="st0" d="M96.7,122.7c11.3,0,20.4-9.1,20.4-20.4c0-11.3-9.1-20.4-20.4-20.4c-11.3,0-20.4,9.1-20.4,20.4
	C76.3,113.6,85.4,122.7,96.7,122.7z"/>
<g>
	<path class="st3" d="M97.1,115.8c0.8,0,1.5-0.6,1.5-1.4c0-0.8,0-1.4,0-1.4c4.1-0.4,6.8-2.5,6.8-6.1v-0.1c0-3.6-2.3-5.2-6.9-6.3
		v-3.3c0.7,0.2,1.3,0.4,2,0.7c1.1,0.5,2.4,0.2,3-0.9c0.7-1.1,0.3-2.6-0.9-3.1c-1.2-0.5-2.5-0.9-4-1.1v-0.9c0-0.5-0.7-0.9-1.5-0.9
		c-0.8,0-1.5,0.4-1.5,0.8c0,0.5,0,0.8,0,0.8c-4.4,0.3-6.9,2.7-6.9,6.1v0.1c0,3.6,2.4,5.2,7,6.2v3.5c-1.1-0.2-2.2-0.6-3.3-1.1
		c-1.2-0.6-2.6-0.4-3.4,0.7c-0.7,1.1-0.4,2.6,0.8,3.2c1.8,0.9,3.7,1.4,5.7,1.6v1.4C95.5,115.1,96.2,115.8,97.1,115.8z M98.4,105.6
		c1.5,0.4,1.9,0.9,1.9,1.6v0.1c0,0.8-0.6,1.3-1.9,1.5V105.6z M93.8,98.4L93.8,98.4c0-0.8,0.5-1.4,2-1.5v3.1
		C94.2,99.6,93.8,99.2,93.8,98.4z"/>
</g>
</svg>
