<?xml version="1.0" encoding="utf-8"?>
<!-- Generator: Adobe Illustrator 26.4.1, SVG Export Plug-In . SVG Version: 6.00 Build 0)  -->
<svg version="1.1" id="Layer_1" xmlns="http://www.w3.org/2000/svg" xmlns:xlink="http://www.w3.org/1999/xlink" x="0px" y="0px"
	 viewBox="0 0 127 128" style="enable-background:new 0 0 127 128;" xml:space="preserve">
<style type="text/css">
	.st0{clip-path:url(#SVGID_00000000212888753262397140000007059083801264853143_);}
	.st1{fill:#818CF8;}
	.st2{fill-rule:evenodd;clip-rule:evenodd;fill:#FFFFFF;}
	.st3{fill:#032E47;}
	.st4{fill:#1D4ED8;}
	.st5{fill:#F3F4F6;}
	.st6{fill:none;stroke:#F3F4F6;stroke-width:2;stroke-linecap:round;stroke-miterlimit:10;}
</style>
<g>
	<defs>
		<rect id="SVGID_1_" width="127" height="127.6"/>
	</defs>
	<clipPath id="SVGID_00000041992985897488365020000011838184574453223614_">
		<use xlink:href="#SVGID_1_"  style="overflow:visible;"/>
	</clipPath>
	<g style="clip-path:url(#SVGID_00000041992985897488365020000011838184574453223614_);">
		<path class="st1" d="M64.8,124.6c33.6,0,60.8-27.2,60.8-60.8S98.4,3,64.8,3S4,30.2,4,63.8S31.2,124.6,64.8,124.6z"/>
		<g id="Page-1">
			<g id="add" transform="translate(42.666667, 64.000000)">
				<path id="Combined-Shape" class="st2" d="M35.6,3c6.7,0,12.1,5.4,12.1,12.1s-5.4,12.1-12.1,12.1s-12.1-5.4-12.1-12.1
					S28.9,3,35.6,3z M31.6,8.4v13.5l12.1-6.7L31.6,8.4z M21.4,11.1c-0.4,1.3-0.6,2.6-0.6,4c0,0.5,0,0.9,0.1,1.3l-27,0v-5.4
					L21.4,11.1z M4.7-10.5V8.4h-8.1v-18.8H4.7z M18.1-2.4V8.4h-8.1V-2.4H18.1z M31.6-5.1l0,5.9c-3.3,0.9-6.1,3-8.1,5.7l0-11.7H31.6z
					 M45.1-2.4l0,6.1c-2.2-1.8-5-3-8.1-3.3l0-2.8H45.1z M27.6-23.9c2.2,0,4,1.8,4,4c0,0.1,0,0.1,0,0.2l6.4,2.6
					c0.7-0.8,1.8-1.4,3-1.4c2.2,0,4,1.8,4,4s-1.8,4-4,4c-2.2,0-4-1.8-4-4c0-0.1,0-0.1,0-0.2l-6.4-2.6c-0.7,0.8-1.8,1.4-3,1.4
					c-1,0-1.9-0.3-2.6-0.9l-6.9,4.2c0.1,0.3,0.1,0.5,0.1,0.8c0,2.2-1.8,4-4,4s-4-1.8-4-4c0-0.3,0-0.5,0.1-0.8l-6.9-4.2
					c-0.7,0.6-1.6,0.9-2.6,0.9c-2.2,0-4-1.8-4-4s1.8-4,4-4s4,1.8,4,4c0,0.3,0,0.5-0.1,0.8l6.9,4.2c0.7-0.6,1.6-0.9,2.6-0.9
					c1,0,1.9,0.3,2.6,0.9l6.9-4.2c-0.1-0.3-0.1-0.5-0.1-0.8C23.5-22.1,25.3-23.9,27.6-23.9z"/>
			</g>
		</g>
		<path class="st3" d="M117.7,12.5c3.4,0,6.2-2.8,6.2-6.2S121.1,0,117.7,0c-3.4,0-6.2,2.8-6.2,6.2S114.2,12.5,117.7,12.5z"/>
		<path class="st3" d="M6.2,92.1c3.4,0,6.2-2.8,6.2-6.2c0-3.4-2.8-6.2-6.2-6.2S0,82.4,0,85.8C0,89.3,2.8,92.1,6.2,92.1z"/>
		<path class="st4" d="M11.8,70.2c2.3,0,4.1-1.8,4.1-4.1c0-2.3-1.8-4.1-4.1-4.1c-2.3,0-4.1,1.8-4.1,4.1C7.7,68.4,9.6,70.2,11.8,70.2
			z"/>
		<path class="st4" d="M22.8,127.6c1.6,0,2.8-1.3,2.8-2.8s-1.3-2.8-2.8-2.8c-1.6,0-2.8,1.3-2.8,2.8S21.2,127.6,22.8,127.6z"/>
		<path class="st4" d="M123.9,24.1c1.7,0,3.1-1.4,3.1-3.1c0-1.7-1.4-3.1-3.1-3.1c-1.7,0-3.1,1.4-3.1,3.1
			C120.8,22.8,122.2,24.1,123.9,24.1z"/>
		<path class="st4" d="M108.5,4.3c0.9,0,1.7-0.7,1.7-1.7S109.4,1,108.5,1s-1.7,0.7-1.7,1.7S107.5,4.3,108.5,4.3z"/>
		<path class="st5" d="M96.7,126.1c13.1,0,23.7-10.6,23.7-23.7c0-13.1-10.6-23.7-23.7-23.7C83.6,78.6,73,89.2,73,102.3
			C73,115.4,83.6,126.1,96.7,126.1z"/>
		<path class="st4" d="M96.7,122.7c11.3,0,20.4-9.1,20.4-20.4c0-11.3-9.1-20.4-20.4-20.4c-11.3,0-20.4,9.1-20.4,20.4
			C76.3,113.6,85.4,122.7,96.7,122.7z"/>
		<path class="st6" d="M96.7,92.1v19.5"/>
		<path class="st6" d="M106.5,102.3H87.2"/>
	</g>
</g>
</svg>
